ply
format ascii 1.0
comment Created in Blender version 4.3.0
element vertex 80
property float x
property float y
property float z
property float nx
property float ny
property float nz
element face 120
property list uchar uint vertex_indices
end_header
-1.1779246 9.989561 -12.152573 -0.5773285 -0.5773612 0.5773612
-1.1779246 12.862461 -12.152573 -0.5773721 0.57733935 0.57733935
-1.1779246 9.989561 -15.025471 -0.5773721 -0.57733935 -0.57733935
-1.1779246 12.862461 -15.025471 -0.5773285 0.5773612 -0.5773612
1.6949744 9.989561 -12.152573 0.5773721 -0.57733935 0.57733935
1.6949744 12.862461 -12.152573 0.5773285 0.5773612 0.5773612
1.6949744 9.989561 -15.025471 0.5773285 -0.5773612 -0.5773612
1.6949744 12.862461 -15.025471 0.5773721 0.57733935 -0.57733935
-4.0219865 8.900751 -13.48391 -0.6529499 -0.652987 0.3837505
-4.0219865 12.940372 -13.48391 -0.6529924 0.6529554 0.38373196
-4.0219865 8.900751 -20.357697 -0.6529924 -0.6529554 -0.38373196
-4.0219865 12.940372 -20.357697 -0.6529499 0.652987 -0.3837505
0.017633915 8.900751 -13.48391 0.6529924 -0.6529554 0.38373196
0.017633915 12.940372 -13.48391 0.6529499 0.652987 0.3837505
0.017633915 8.900751 -20.357697 0.6529499 -0.652987 -0.3837505
0.017633915 12.940372 -20.357697 0.6529924 0.6529554 -0.38373196
0.21229804 9.989561 -14.189093 -0.5773285 -0.5773612 0.5773612
0.21229804 12.862461 -14.189093 -0.5773721 0.57733935 0.57733935
0.21229804 9.989561 -17.06199 -0.5773721 -0.57733935 -0.57733935
0.21229804 12.862461 -17.06199 -0.5773285 0.5773612 -0.5773612
3.085197 9.989561 -14.189093 0.5773721 -0.57733935 0.57733935
3.085197 12.862461 -14.189093 0.5773285 0.5773612 0.5773612
3.085197 9.989561 -17.06199 0.5773285 -0.5773612 -0.5773612
3.085197 12.862461 -17.06199 0.5773721 0.57733935 -0.57733935
-0.8288625 10.679089 -15.81358 -0.5773285 -0.5773612 0.5773612
-0.8288625 13.551989 -15.81358 -0.5773721 0.57733935 0.57733935
-0.8288625 10.679089 -18.686478 -0.5773721 -0.57733935 -0.57733935
-0.8288625 13.551989 -18.686478 -0.5773285 0.5773612 -0.5773612
2.0440366 10.679089 -15.81358 0.5773721 -0.57733935 0.57733935
2.0440366 13.551989 -15.81358 0.5773285 0.5773612 0.5773612
2.0440366 10.679089 -18.686478 0.5773285 -0.5773612 -0.5773612
2.0440366 13.551989 -18.686478 0.5773721 0.57733935 -0.57733935
-0.70977664 8.401152 -17.333601 -0.5773285 -0.5773612 0.5773612
-0.70977664 11.27405 -17.333601 -0.5773721 0.57733935 0.57733935
-0.70977664 8.401152 -20.2065 -0.5773721 -0.57733935 -0.57733935
-0.70977664 11.27405 -20.2065 -0.5773285 0.5773612 -0.5773612
2.1631224 8.401152 -17.333601 0.5773721 -0.57733935 0.57733935
2.1631224 11.27405 -17.333601 0.5773285 0.5773612 0.5773612
2.1631224 8.401152 -20.2065 0.5773285 -0.5773612 -0.5773612
2.1631224 11.27405 -20.2065 0.5773721 0.57733935 -0.57733935
-2.0550313 11.211988 -17.665564 -0.5773285 -0.5773612 0.5773612
-2.0550313 14.084888 -17.665564 -0.5773721 0.57733935 0.57733935
-2.0550313 11.211988 -20.538462 -0.5773721 -0.57733935 -0.57733935
-2.0550313 14.084888 -20.538462 -0.5773285 0.5773612 -0.5773612
0.81786776 11.211988 -17.665564 0.5773721 -0.57733935 0.57733935
0.81786776 14.084888 -17.665564 0.5773285 0.5773612 0.5773612
0.81786776 11.211988 -20.538462 0.5773285 -0.5773612 -0.5773612
0.81786776 14.084888 -20.538462 0.5773721 0.57733935 -0.57733935
-1.1779246 9.989561 -18.63349 -0.5773285 -0.5773612 0.5773612
-1.1779246 12.862461 -18.63349 -0.5773721 0.57733935 0.57733935
-1.1779246 9.989561 -21.506388 -0.5773721 -0.57733935 -0.57733935
-1.1779246 12.862461 -21.506388 -0.5773285 0.5773612 -0.5773612
1.6949744 9.989561 -18.63349 0.5773721 -0.57733935 0.57733935
1.6949744 12.862461 -18.63349 0.5773285 0.5773612 0.5773612
1.6949744 9.989561 -21.506388 0.5773285 -0.5773612 -0.5773612
1.6949744 12.862461 -21.506388 0.5773721 0.57733935 -0.57733935
-5.896669 9.279282 -15.492231 -0.5773285 -0.5773612 0.5773612
-5.896669 12.152182 -15.492231 -0.5773721 0.57733935 0.57733935
-5.896669 9.279282 -18.36513 -0.5773721 -0.57733935 -0.57733935
-5.896669 12.152182 -18.36513 -0.5773285 0.5773612 -0.5773612
-3.0237699 9.279282 -15.492231 0.5773721 -0.57733935 0.57733935
-3.0237699 12.152182 -15.492231 0.5773285 0.5773612 0.5773612
-3.0237699 9.279282 -18.36513 0.5773285 -0.5773612 -0.5773612
-3.0237699 12.152182 -18.36513 0.5773721 0.57733935 -0.57733935
-6.4176173 9.989561 -13.090212 -0.5773285 -0.5773612 0.5773612
-6.4176173 12.862461 -13.090212 -0.5773721 0.57733935 0.57733935
-6.4176173 9.989561 -15.96311 -0.5773721 -0.57733935 -0.57733935
-6.4176173 12.862461 -15.96311 -0.5773285 0.5773612 -0.5773612
-3.5447183 9.989561 -13.090212 0.5773721 -0.57733935 0.57733935
-3.5447183 12.862461 -13.090212 0.5773285 0.5773612 0.5773612
-3.5447183 9.989561 -15.96311 0.5773285 -0.5773612 -0.5773612
-3.5447183 12.862461 -15.96311 0.5773721 0.57733935 -0.57733935
-3.829121 9.989561 -10.735823 -0.5773285 -0.5773612 0.5773612
-3.829121 12.862461 -10.735823 -0.5773721 0.57733935 0.57733935
-3.829121 9.989561 -13.608721 -0.5773721 -0.57733935 -0.57733935
-3.829121 12.862461 -13.608721 -0.5773285 0.5773612 -0.5773612
-0.95622206 9.989561 -10.735823 0.5773721 -0.57733935 0.57733935
-0.95622206 12.862461 -10.735823 0.5773285 0.5773612 0.5773612
-0.95622206 9.989561 -13.608721 0.5773285 -0.5773612 -0.5773612
-0.95622206 12.862461 -13.608721 0.5773721 0.57733935 -0.57733935
3 1 2 0
3 3 6 2
3 7 4 6
3 5 0 4
3 6 0 2
3 3 5 7
3 1 3 2
3 3 7 6
3 7 5 4
3 5 1 0
3 6 4 0
3 3 1 5
3 9 10 8
3 11 14 10
3 15 12 14
3 13 8 12
3 14 8 10
3 11 13 15
3 9 11 10
3 11 15 14
3 15 13 12
3 13 9 8
3 14 12 8
3 11 9 13
3 17 18 16
3 19 22 18
3 23 20 22
3 21 16 20
3 22 16 18
3 19 21 23
3 17 19 18
3 19 23 22
3 23 21 20
3 21 17 16
3 22 20 16
3 19 17 21
3 25 26 24
3 27 30 26
3 31 28 30
3 29 24 28
3 30 24 26
3 27 29 31
3 25 27 26
3 27 31 30
3 31 29 28
3 29 25 24
3 30 28 24
3 27 25 29
3 33 34 32
3 35 38 34
3 39 36 38
3 37 32 36
3 38 32 34
3 35 37 39
3 33 35 34
3 35 39 38
3 39 37 36
3 37 33 32
3 38 36 32
3 35 33 37
3 41 42 40
3 43 46 42
3 47 44 46
3 45 40 44
3 46 40 42
3 43 45 47
3 41 43 42
3 43 47 46
3 47 45 44
3 45 41 40
3 46 44 40
3 43 41 45
3 49 50 48
3 51 54 50
3 55 52 54
3 53 48 52
3 54 48 50
3 51 53 55
3 49 51 50
3 51 55 54
3 55 53 52
3 53 49 48
3 54 52 48
3 51 49 53
3 57 58 56
3 59 62 58
3 63 60 62
3 61 56 60
3 62 56 58
3 59 61 63
3 57 59 58
3 59 63 62
3 63 61 60
3 61 57 56
3 62 60 56
3 59 57 61
3 65 66 64
3 67 70 66
3 71 68 70
3 69 64 68
3 70 64 66
3 67 69 71
3 65 67 66
3 67 71 70
3 71 69 68
3 69 65 64
3 70 68 64
3 67 65 69
3 73 74 72
3 75 78 74
3 79 76 78
3 77 72 76
3 78 72 74
3 75 77 79
3 73 75 74
3 75 79 78
3 79 77 76
3 77 73 72
3 78 76 72
3 75 73 77
