ply
format ascii 1.0
comment Created in Blender version 4.3.0
element vertex 152
property float x
property float y
property float z
property float nx
property float ny
property float nz
element face 256
property list uchar uint vertex_indices
end_header
0 -5 -1 -5.919028e-07 -0.18515113 -0.98271
0 5 -1 5.901468e-07 0.18514752 -0.9827107
0.19509032 -5 -0.98078525 0.19171679 -0.18514757 -0.96382827
0.19509032 5 -0.98078525 0.19171788 0.18515117 -0.9638274
0.38268346 -5 -0.9238795 0.3760662 -0.18515116 -0.90790594
0.38268346 5 -0.9238795 0.37606806 0.18514211 -0.90790707
0.55557024 -5 -0.8314696 0.54596555 -0.18513781 -0.8170958
0.55557024 5 -0.8314696 0.5459649 0.18515114 -0.81709325
0.70710677 -5 -0.70710677 0.69488055 -0.1851511 -0.69488126
0.70710677 5 -0.70710677 0.69488174 0.18514763 -0.69488096
0.8314696 -5 -0.55557024 0.8170934 -0.18514764 -0.54596585
0.8314696 5 -0.55557024 0.81709397 0.18515113 -0.54596394
0.9238795 -5 -0.38268346 0.90790546 -0.18515116 -0.37606743
0.9238795 5 -0.38268346 0.90790826 0.18513791 -0.37606722
0.98078525 -5 -0.19509032 0.96383005 -0.18513677 -0.19171843
0.98078525 5 -0.19509032 0.9638276 0.18515116 -0.19171667
1 -5 0 0.98271 -0.1851511 -5.919028e-07
1 5 0 0.9827107 0.18514752 5.901468e-07
0.98078525 -5 0.19509032 0.9638283 -0.18514773 0.19171698
0.98078525 5 0.19509032 0.9638274 0.18515116 0.19171786
0.9238795 -5 0.38268346 0.90790594 -0.18515116 0.37606618
0.9238795 5 0.38268346 0.907908 0.18513672 0.37606853
0.8314696 -5 0.55557024 0.81709605 -0.18513784 0.5459653
0.8314696 5 0.55557024 0.81709313 0.18515113 0.54596514
0.70710677 -5 0.70710677 0.69488126 -0.1851511 0.6948806
0.70710677 5 0.70710677 0.694881 0.18514766 0.69488186
0.55557024 -5 0.8314696 0.5459653 -0.1851475 0.81709385
0.55557024 5 0.8314696 0.54596406 0.18515113 0.81709373
0.38268346 -5 0.9238795 0.37606737 -0.18515116 0.90790546
0.38268346 5 0.9238795 0.37606722 0.18513787 0.90790826
0.19509032 -5 0.98078525 0.19171818 -0.18514211 0.96382904
0.19509032 5 0.98078525 0.19171667 0.18515119 0.9638277
0 -5 1 5.919028e-07 -0.18515113 0.98271
0 5 1 -5.901468e-07 0.18514752 0.9827107
-0.19509032 -5 0.98078525 -0.19171679 -0.18514757 0.96382827
-0.19509032 5 0.98078525 -0.19171788 0.18515117 0.9638274
-0.38268346 -5 0.9238795 -0.3760662 -0.18515116 0.90790594
-0.38268346 5 0.9238795 -0.37606806 0.18514211 0.90790707
-0.55557024 -5 0.8314696 -0.54596555 -0.18513781 0.8170958
-0.55557024 5 0.8314696 -0.5459649 0.18515114 0.81709325
-0.70710677 -5 0.70710677 -0.69488055 -0.1851511 0.69488126
-0.70710677 5 0.70710677 -0.69488174 0.18514763 0.69488096
-0.8314696 -5 0.55557024 -0.8170934 -0.18514764 0.54596585
-0.8314696 5 0.55557024 -0.81709397 0.18515113 0.54596394
-0.9238795 -5 0.38268346 -0.90790546 -0.18515116 0.37606743
-0.9238795 5 0.38268346 -0.90790826 0.18513791 0.37606722
-0.98078525 -5 0.19509032 -0.96383005 -0.18513677 0.19171843
-0.98078525 5 0.19509032 -0.9638276 0.18515116 0.19171667
-1 -5 0 -0.98271 -0.1851511 5.919028e-07
-1 5 0 -0.9827107 0.18514752 -5.901468e-07
-0.98078525 -5 -0.19509032 -0.9638283 -0.18514773 -0.19171698
-0.98078525 5 -0.19509032 -0.9638274 0.18515116 -0.19171786
-0.9238795 -5 -0.38268346 -0.90790594 -0.18515116 -0.37606618
-0.9238795 5 -0.38268346 -0.907908 0.18513672 -0.37606853
-0.8314696 -5 -0.55557024 -0.81709605 -0.18513784 -0.5459653
-0.8314696 5 -0.55557024 -0.81709313 0.18515113 -0.54596514
-0.70710677 -5 -0.70710677 -0.69488126 -0.1851511 -0.6948806
-0.70710677 5 -0.70710677 -0.694881 0.18514766 -0.69488186
-0.55557024 -5 -0.8314696 -0.5459653 -0.1851475 -0.81709385
-0.55557024 5 -0.8314696 -0.54596406 0.18515113 -0.81709373
-0.38268346 -5 -0.9238795 -0.37606737 -0.18515116 -0.90790546
-0.38268346 5 -0.9238795 -0.37606722 0.18513787 -0.90790826
-0.19509032 -5 -0.98078525 -0.19171818 -0.18514211 -0.96382904
-0.19509032 5 -0.98078525 -0.19171667 0.18515119 -0.9638277
-0.6745508 3.730298 3.5288618 -0.57732844 -0.57736117 0.57736117
-0.6745508 5.730298 3.5288618 -0.5773721 0.57733935 0.57733935
-0.6745508 3.730298 1.5288618 -0.5773721 -0.57733935 -0.57733935
-0.6745508 5.730298 1.5288618 -0.57732844 0.57736117 -0.57736117
1.3254492 3.730298 3.5288618 0.5773721 -0.57733935 0.57733935
1.3254492 5.730298 3.5288618 0.57732844 0.57736117 0.57736117
1.3254492 3.730298 1.5288618 0.57732844 -0.57736117 -0.57736117
1.3254492 5.730298 1.5288618 0.5773721 0.57733935 -0.57733935
-1.6856138 2.6224804 3.8833225 -0.47860885 -0.6177623 0.6239419
-1.6856138 5.782303 3.8833225 -0.47865066 0.61774623 0.6239257
-1.6856138 2.6224804 0.7547953 -0.47865066 -0.61774623 -0.6239257
-1.6856138 5.782303 0.7547953 -0.47860885 0.6177623 -0.6239419
2.3926826 2.6224804 3.8833225 0.47865066 -0.61774623 0.6239257
2.3926826 5.782303 3.8833225 0.47860885 0.6177623 0.6239419
2.3926826 2.6224804 0.7547953 0.47860885 -0.6177623 -0.6239419
2.3926826 5.782303 0.7547953 0.47865066 0.61774623 -0.6239257
-1.3798811 3.0153308 -0.8417214 -0.57732844 -0.57736117 0.57736117
-1.3798811 6.03309 -0.8417214 -0.57737213 0.57733935 0.57733935
-1.3798811 3.0153308 -3.8594804 -0.57737213 -0.57733935 -0.57733935
-1.3798811 6.03309 -3.8594804 -0.57732844 0.57736117 -0.57736117
1.637878 3.0153308 -0.8417214 0.57737213 -0.57733935 0.57733935
1.637878 6.03309 -0.8417214 0.57732844 0.57736117 0.57736117
1.637878 3.0153308 -3.8594804 0.57732844 -0.57736117 -0.57736117
1.637878 6.03309 -3.8594804 0.57737213 0.57733935 -0.57733935
0.23032331 5.3517933 1.3242853 -0.5773285 -0.5773612 0.5773612
0.23032331 7.714926 1.3242853 -0.5773721 0.57733935 0.57733935
0.23032331 5.3517933 -1.0388467 -0.5773721 -0.57733935 -0.57733935
0.23032331 7.714926 -1.0388467 -0.5773285 0.5773612 -0.5773612
2.5934553 5.3517933 1.3242853 0.5773721 -0.57733935 0.57733935
2.5934553 7.714926 1.3242853 0.5773285 0.5773612 0.5773612
2.5934553 5.3517933 -1.0388467 0.5773285 -0.5773612 -0.5773612
2.5934553 7.714926 -1.0388467 0.5773721 0.57733935 -0.57733935
-2.7602336 4.43153 2.878716 -0.57732844 -0.57736117 0.57736117
-2.7602336 6.43153 2.878716 -0.5773721 0.57733935 0.57733935
-2.7602336 4.43153 0.8787159 -0.5773721 -0.57733935 -0.57733935
-2.7602336 6.43153 0.8787159 -0.57732844 0.57736117 -0.57736117
-0.76023364 4.43153 2.878716 0.5773721 -0.57733935 0.57733935
-0.76023364 6.43153 2.878716 0.57732844 0.57736117 0.57736117
-0.76023364 4.43153 0.8787159 0.57732844 -0.57736117 -0.57736117
-0.76023364 6.43153 0.8787159 0.5773721 0.57733935 -0.57733935
-3.6885204 3.705564 1.0346406 -0.57732844 -0.57736117 0.57736117
-3.6885204 6.909471 1.0346406 -0.5773721 0.57733935 0.57733935
-3.6885204 3.705564 -2.1692662 -0.5773721 -0.57733935 -0.57733935
-3.6885204 6.909471 -2.1692662 -0.57732844 0.57736117 -0.57736117
-0.48461354 3.705564 1.0346406 0.5773721 -0.57733935 0.57733935
-0.48461354 6.909471 1.0346406 0.57732844 0.57736117 0.57736117
-0.48461354 3.705564 -2.1692662 0.57732844 -0.57736117 -0.57736117
-0.48461354 6.909471 -2.1692662 0.5773721 0.57733935 -0.57733935
-0.35704446 4.528444 -0.49321687 -0.57732844 -0.57736117 0.57736117
-0.35704446 7.1342635 -0.49321687 -0.5773721 0.57733935 0.57733935
-0.35704446 4.528444 -3.0990367 -0.5773721 -0.57733935 -0.57733935
-0.35704446 7.1342635 -3.0990367 -0.57732844 0.57736117 -0.57736117
2.2487755 4.528444 -0.49321687 0.5773721 -0.57733935 0.57733935
2.2487755 7.1342635 -0.49321687 0.57732844 0.57736117 0.57736117
2.2487755 4.528444 -3.0990367 0.57732844 -0.57736117 -0.57736117
2.2487755 7.1342635 -3.0990367 0.5773721 0.57733935 -0.57733935
0.41509318 5.6065335 3.173961 -0.57732844 -0.57736117 0.57736117
0.41509318 7.6065335 3.173961 -0.5773721 0.57733935 0.57733935
0.41509318 5.6065335 1.1739609 -0.5773721 -0.57733935 -0.57733935
0.41509318 7.6065335 1.1739609 -0.57732844 0.57736117 -0.57736117
2.4150932 5.6065335 3.173961 0.5773721 -0.57733935 0.57733935
2.4150932 7.6065335 3.173961 0.57732844 0.57736117 0.57736117
2.4150932 5.6065335 1.1739609 0.57732844 -0.57736117 -0.57736117
2.4150932 7.6065335 1.1739609 0.5773721 0.57733935 -0.57733935
-1.2952662 5.118517 -1.988065 -0.57732844 -0.57736117 0.57736117
-1.2952662 6.967827 -1.988065 -0.5773721 0.57733935 0.57733935
-1.2952662 5.118517 -3.8373754 -0.5773721 -0.57733935 -0.57733935
-1.2952662 6.967827 -3.8373754 -0.57732844 0.57736117 -0.57736117
0.5540442 5.118517 -1.988065 0.5773721 -0.57733935 0.57733935
0.5540442 6.967827 -1.988065 0.57732844 0.57736117 0.57736117
0.5540442 5.118517 -3.8373754 0.57732844 -0.57736117 -0.57736117
0.5540442 6.967827 -3.8373754 0.5773721 0.57733935 -0.57733935
0.29385448 4.0818176 0.66786027 -0.5031219 -0.6110926 0.6110926
0.29385448 6.692294 0.66786027 -0.5031645 0.6110751 0.6110751
0.29385448 4.0818176 -1.9426167 -0.5031645 -0.6110751 -0.6110751
0.29385448 6.692294 -1.9426167 -0.5031219 0.6110926 -0.6110926
3.4643638 4.0818176 0.66786027 0.5031645 -0.6110751 0.6110751
3.4643638 6.692294 0.66786027 0.5031219 0.6110926 0.6110926
3.4643638 4.0818176 -1.9426167 0.5031219 -0.6110926 -0.6110926
3.4643638 6.692294 -1.9426167 0.5031645 0.6110751 -0.6110751
-1.4671266 5.7678685 2.2002723 -0.57732844 -0.57736117 0.57736117
-1.4671266 8.402347 2.2002723 -0.577372 0.57733935 0.57733935
-1.4671266 5.7678685 -0.434206 -0.577372 -0.57733935 -0.57733935
-1.4671266 8.402347 -0.434206 -0.57732844 0.57736117 -0.57736117
1.1673517 5.7678685 2.2002723 0.577372 -0.57733935 0.57733935
1.1673517 8.402347 2.2002723 0.57732844 0.57736117 0.57736117
1.1673517 5.7678685 -0.434206 0.57732844 -0.57736117 -0.57736117
1.1673517 8.402347 -0.434206 0.577372 0.57733935 -0.57733935
3 1 2 0
3 3 4 2
3 5 6 4
3 7 8 6
3 9 10 8
3 11 12 10
3 13 14 12
3 15 16 14
3 17 18 16
3 19 20 18
3 21 22 20
3 23 24 22
3 25 26 24
3 27 28 26
3 29 30 28
3 31 32 30
3 33 34 32
3 35 36 34
3 37 38 36
3 39 40 38
3 41 42 40
3 43 44 42
3 45 46 44
3 47 48 46
3 49 50 48
3 51 52 50
3 53 54 52
3 55 56 54
3 57 58 56
3 59 60 58
3 37 21 5
3 61 62 60
3 63 0 62
3 30 46 62
3 1 3 2
3 3 5 4
3 5 7 6
3 7 9 8
3 9 11 10
3 11 13 12
3 13 15 14
3 15 17 16
3 17 19 18
3 19 21 20
3 21 23 22
3 23 25 24
3 25 27 26
3 27 29 28
3 29 31 30
3 31 33 32
3 33 35 34
3 35 37 36
3 37 39 38
3 39 41 40
3 41 43 42
3 43 45 44
3 45 47 46
3 47 49 48
3 49 51 50
3 51 53 52
3 53 55 54
3 55 57 56
3 57 59 58
3 59 61 60
3 5 3 1
3 1 63 61
3 61 59 57
3 57 55 53
3 53 51 49
3 49 47 45
3 45 43 41
3 41 39 37
3 37 35 33
3 33 31 29
3 29 27 25
3 25 23 21
3 21 19 17
3 17 15 13
3 13 11 9
3 9 7 5
3 5 1 61
3 61 57 53
3 53 49 45
3 45 41 37
3 37 33 29
3 29 25 21
3 21 17 13
3 13 9 5
3 5 61 53
3 53 45 37
3 37 29 21
3 21 13 5
3 5 53 37
3 61 63 62
3 63 1 0
3 62 0 2
3 2 4 6
3 6 8 10
3 10 12 14
3 14 16 18
3 18 20 22
3 22 24 26
3 26 28 30
3 30 32 34
3 34 36 38
3 38 40 42
3 42 44 46
3 46 48 50
3 50 52 54
3 54 56 58
3 58 60 62
3 62 2 6
3 6 10 14
3 14 18 22
3 22 26 30
3 30 34 38
3 38 42 46
3 46 50 54
3 54 58 62
3 62 6 14
3 14 22 30
3 30 38 46
3 46 54 62
3 62 14 30
3 65 66 64
3 67 70 66
3 71 68 70
3 69 64 68
3 70 64 66
3 67 69 71
3 65 67 66
3 67 71 70
3 71 69 68
3 69 65 64
3 70 68 64
3 67 65 69
3 73 74 72
3 75 78 74
3 79 76 78
3 77 72 76
3 78 72 74
3 75 77 79
3 73 75 74
3 75 79 78
3 79 77 76
3 77 73 72
3 78 76 72
3 75 73 77
3 81 82 80
3 83 86 82
3 87 84 86
3 85 80 84
3 86 80 82
3 83 85 87
3 81 83 82
3 83 87 86
3 87 85 84
3 85 81 80
3 86 84 80
3 83 81 85
3 89 90 88
3 91 94 90
3 95 92 94
3 93 88 92
3 94 88 90
3 91 93 95
3 89 91 90
3 91 95 94
3 95 93 92
3 93 89 88
3 94 92 88
3 91 89 93
3 97 98 96
3 99 102 98
3 103 100 102
3 101 96 100
3 102 96 98
3 99 101 103
3 97 99 98
3 99 103 102
3 103 101 100
3 101 97 96
3 102 100 96
3 99 97 101
3 105 106 104
3 107 110 106
3 111 108 110
3 109 104 108
3 110 104 106
3 107 109 111
3 105 107 106
3 107 111 110
3 111 109 108
3 109 105 104
3 110 108 104
3 107 105 109
3 113 114 112
3 115 118 114
3 119 116 118
3 117 112 116
3 118 112 114
3 115 117 119
3 113 115 114
3 115 119 118
3 119 117 116
3 117 113 112
3 118 116 112
3 115 113 117
3 121 122 120
3 123 126 122
3 127 124 126
3 125 120 124
3 126 120 122
3 123 125 127
3 121 123 122
3 123 127 126
3 127 125 124
3 125 121 120
3 126 124 120
3 123 121 125
3 129 130 128
3 131 134 130
3 135 132 134
3 133 128 132
3 134 128 130
3 131 133 135
3 129 131 130
3 131 135 134
3 135 133 132
3 133 129 128
3 134 132 128
3 131 129 133
3 137 138 136
3 139 142 138
3 143 140 142
3 141 136 140
3 142 136 138
3 139 141 143
3 137 139 138
3 139 143 142
3 143 141 140
3 141 137 136
3 142 140 136
3 139 137 141
3 145 146 144
3 147 150 146
3 151 148 150
3 149 144 148
3 150 144 146
3 147 149 151
3 145 147 146
3 147 151 150
3 151 149 148
3 149 145 144
3 150 148 144
3 147 145 149
